<?xml version="1.0" encoding="UTF-8" standalone="no"?>
<!-- Generator: Adobe Illustrator 16.0.0, SVG Export Plug-In . SVG Version: 6.00 Build 0)  -->

<svg
   xmlns:dc="http://purl.org/dc/elements/1.1/"
   xmlns:cc="http://creativecommons.org/ns#"
   xmlns:rdf="http://www.w3.org/1999/02/22-rdf-syntax-ns#"
   xmlns:svg="http://www.w3.org/2000/svg"
   xmlns="http://www.w3.org/2000/svg"
   xmlns:sodipodi="http://sodipodi.sourceforge.net/DTD/sodipodi-0.dtd"
   xmlns:inkscape="http://www.inkscape.org/namespaces/inkscape"
   version="1.1"
   id="Layer_1"
   x="0px"
   y="0px"
   width="2000"
   height="2000"
   viewBox="-45.218 -37.189 2000.0001 2000.0001"
   enable-background="new -45.218 -37.189 672.334 199.333"
   xml:space="preserve"
   inkscape:version="0.91 r13725"
   sodipodi:docname="NVP-right.svg"><metadata
     id="metadata105"><rdf:RDF><cc:Work
         rdf:about=""><dc:format>image/svg+xml</dc:format><dc:type
           rdf:resource="http://purl.org/dc/dcmitype/StillImage" /><dc:title /></cc:Work></rdf:RDF></metadata><defs
     id="defs103" /><sodipodi:namedview
     pagecolor="#ffffff"
     bordercolor="#666666"
     borderopacity="1"
     objecttolerance="10"
     gridtolerance="10"
     guidetolerance="10"
     inkscape:pageopacity="0"
     inkscape:pageshadow="2"
     inkscape:window-width="1920"
     inkscape:window-height="1147"
     id="namedview101"
     showgrid="false"
     inkscape:zoom="0.85671707"
     inkscape:cx="1373.4481"
     inkscape:cy="435.01687"
     inkscape:window-x="1672"
     inkscape:window-y="-8"
     inkscape:window-maximized="1"
     inkscape:current-layer="Layer_1" /><g
     id="g81"
     transform="translate(463.39689,1263.7336)"
     inkscape:export-xdpi="90"
     inkscape:export-ydpi="90"><path
       d="m -2.823,149.876 c -2.375,7.767 -10.674,12.178 -18.441,9.807 l -4.081,-1.246 c -7.768,-2.371 -12.179,-10.665 -9.805,-18.43 l 50.67,-165.74 c 2.375,-7.768 10.671,-12.179 18.438,-9.804 l 4.095,1.251 c 7.765,2.375 12.177,10.672 9.801,18.438 L -2.823,149.876 Z"
       id="path83"
       inkscape:connector-curvature="0"
       style="fill:#bb5400" /></g><g
     id="g85"
     transform="translate(463.39689,1263.7336)"
     inkscape:export-xdpi="90"
     inkscape:export-ydpi="90"><path
       d="m 99.349,138.724 c 2.406,7.757 -1.972,16.071 -9.729,18.477 l -4.079,1.266 c -7.757,2.405 -16.071,-1.971 -18.477,-9.728 L 15.73,-16.79 c -2.406,-7.756 1.973,-16.071 9.73,-18.476 l 4.076,-1.263 c 7.756,-2.405 16.071,1.973 18.478,9.73 l 51.335,165.523 z"
       id="path87"
       inkscape:connector-curvature="0"
       style="fill:#ee8700" /></g><g
     id="g89"
     transform="translate(463.39689,1263.7336)"
     inkscape:export-xdpi="90"
     inkscape:export-ydpi="90"><path
       d="m 99.358,149.876 c -2.375,7.767 -10.673,12.178 -18.44,9.807 l -4.084,-1.246 c -7.767,-2.371 -12.179,-10.665 -9.805,-18.43 l 50.672,-165.742 c 2.374,-7.767 10.67,-12.178 18.438,-9.804 l 4.088,1.251 c 7.766,2.375 12.176,10.672 9.803,18.438 L 99.358,149.876 Z"
       id="path91"
       inkscape:connector-curvature="0"
       style="fill:#cc6500" /></g><g
     id="g93"
     transform="translate(463.39689,1263.7336)"
     inkscape:export-xdpi="90"
     inkscape:export-ydpi="90"><path
       d="m 200.626,138.724 c 2.406,7.757 -1.972,16.071 -9.729,18.477 l -4.082,1.268 c -7.757,2.403 -16.072,-1.973 -18.478,-9.729 L 116.992,-16.79 c -2.406,-7.756 1.972,-16.07 9.729,-18.475 l 4.082,-1.266 c 7.757,-2.404 16.073,1.974 18.479,9.731 l 51.344,165.524 z"
       id="path95"
       inkscape:connector-curvature="0"
       style="fill:#ee8700;fill-opacity:1" /></g><g
     id="g97"
     transform="translate(463.39689,1263.7336)"
     inkscape:export-xdpi="90"
     inkscape:export-ydpi="90"><path
       d="m 202.875,151.649 c -2.373,7.765 -10.671,12.181 -18.439,9.81 l -4.082,-1.249 c -7.768,-2.371 -12.178,-10.665 -9.805,-18.432 l 50.674,-165.746 c 2.373,-7.767 10.67,-12.176 18.437,-9.8 l 4.084,1.25 c 7.766,2.378 12.176,10.676 9.804,18.442 l -50.673,165.725 z"
       id="path99"
       inkscape:connector-curvature="0"
       style="fill:#dd7600" /></g><text
     xml:space="preserve"
     style="font-style:normal;font-weight:normal;font-size:40px;line-height:125%;font-family:sans-serif;letter-spacing:0px;word-spacing:0px;fill:#000000;fill-opacity:1;stroke:none;stroke-width:1px;stroke-linecap:butt;stroke-linejoin:miter;stroke-opacity:1"
     x="744.54962"
     y="1295.3425"
     id="text4233"
     sodipodi:linespacing="125%"
     inkscape:export-xdpi="90"
     inkscape:export-ydpi="90"><tspan
       sodipodi:role="line"
       id="tspan4235"
       x="744.54962"
       y="1295.3425"
       style="font-style:normal;font-variant:normal;font-weight:normal;font-stretch:normal;font-size:75px;line-height:125%;font-family:Comfortaa;-inkscape-font-specification:Comfortaa;letter-spacing:5px;fill:#bb5400;fill-opacity:1"
       dy="0">NAPA</tspan></text>
<text
     xml:space="preserve"
     style="font-style:normal;font-weight:normal;font-size:40px;line-height:125%;font-family:sans-serif;letter-spacing:0px;word-spacing:0px;fill:#000000;fill-opacity:1;stroke:none;stroke-width:1px;stroke-linecap:butt;stroke-linejoin:miter;stroke-opacity:1"
     x="739.59631"
     y="1370.8003"
     id="text4237"
     sodipodi:linespacing="125%"
     inkscape:export-xdpi="90"
     inkscape:export-ydpi="90"><tspan
       sodipodi:role="line"
       id="tspan4239"
       x="739.59631"
       y="1370.8003"
       style="font-style:normal;font-variant:normal;font-weight:normal;font-stretch:normal;font-size:75px;font-family:Comfortaa;-inkscape-font-specification:Comfortaa;letter-spacing:5px;fill:#ee8700;fill-opacity:1">VENTURE</tspan></text>
<text
     xml:space="preserve"
     style="font-style:normal;font-weight:normal;font-size:40px;line-height:125%;font-family:sans-serif;letter-spacing:0px;word-spacing:0px;fill:#000000;fill-opacity:1;stroke:none;stroke-width:1px;stroke-linecap:butt;stroke-linejoin:miter;stroke-opacity:1"
     x="748.19922"
     y="1420.9253"
     id="text4241"
     sodipodi:linespacing="125%"
     inkscape:export-xdpi="90"
     inkscape:export-ydpi="90"><tspan
       sodipodi:role="line"
       id="tspan4243"
       x="748.19922"
       y="1420.9253"
       style="font-style:normal;font-variant:normal;font-weight:300;font-stretch:normal;font-family:'Segoe UI';-inkscape-font-specification:'Segoe UI Light';letter-spacing:26.36000157px;fill:#bb5400;fill-opacity:1">PARTNERS</tspan></text>
</svg>