<?xml version="1.0" encoding="utf-8"?>
<!-- Generator: Adobe Illustrator 15.0.0, SVG Export Plug-In . SVG Version: 6.00 Build 0)  -->
<!DOCTYPE svg PUBLIC "-//W3C//DTD SVG 1.1//EN" "http://www.w3.org/Graphics/SVG/1.1/DTD/svg11.dtd">
<svg version="1.1" id="Layer_1" xmlns="http://www.w3.org/2000/svg" xmlns:xlink="http://www.w3.org/1999/xlink" x="0px" y="0px"
	 width="466.44px" height="257.622px" viewBox="0 0 466.44 257.622" enable-background="new 0 0 466.44 257.622"
	 xml:space="preserve">
<g id="LOGO_2_">
	<g id="ONE_2_">
		<path fill="#BB5400" d="M143.338,149.998c-1.894,6.19-8.509,9.71-14.701,7.821l-3.252-0.993c-6.192-1.889-9.71-8.5-7.817-14.691
			L157.961,10.01c1.893-6.191,8.507-9.708,14.698-7.815l3.264,0.998c6.191,1.893,9.708,8.507,7.814,14.697L143.338,149.998z"/>
	</g>
	<g id="TWO_2_">
		<path fill="#EE8700" d="M224.787,141.109c1.918,6.184-1.572,12.812-7.755,14.729l-3.251,1.009
			c-6.183,1.917-12.811-1.572-14.729-7.756l-40.922-131.95c-1.918-6.183,1.572-12.811,7.756-14.729l3.248-1.007
			c6.184-1.917,12.812,1.573,14.729,7.756L224.787,141.109z"/>
	</g>
	<g id="THREE_2_">
		<path fill="#CC6500" d="M224.793,149.998c-1.893,6.19-8.508,9.71-14.7,7.821l-3.255-0.993c-6.192-1.889-9.71-8.5-7.817-14.691
			L239.412,10.01c1.893-6.191,8.507-9.708,14.697-7.814l3.26,0.997c6.19,1.893,9.707,8.507,7.814,14.698L224.793,149.998z"/>
	</g>
	<g id="FOUR_2_">
		<path fill="#FF9800" d="M305.52,141.109c1.918,6.184-1.572,12.811-7.755,14.729l-3.254,1.009
			c-6.183,1.918-12.812-1.572-14.729-7.756l-40.931-131.95c-1.918-6.183,1.572-12.811,7.756-14.728l3.253-1.009
			c6.184-1.917,12.812,1.574,14.73,7.757L305.52,141.109z"/>
	</g>
	<g id="FIVE_2_">
		<path fill="#DD7600" d="M307.312,151.412c-1.893,6.19-8.508,9.71-14.699,7.82l-3.251-0.992c-6.191-1.89-9.709-8.501-7.816-14.692
			l40.393-132.128c1.893-6.191,8.507-9.707,14.697-7.813l3.255,0.996c6.19,1.894,9.707,8.509,7.814,14.7L307.312,151.412z"/>
	</g>
</g>
<g id="NAPA_2_">
	<path id="N_5_" fill="#BB5400" d="M2.146,172.16H2.65c1.072,0,1.999,0.837,2.783,2.511c1.25,1.413,10.427,13.157,27.529,35.245
		c0.176,0,0.267,0.122,0.267,0.368l0.102,0.138h0.133v-35.984c0.29-1.519,1.05-2.277,2.281-2.277h0.369
		c1.25,0,2.01,0.795,2.281,2.378v43.088c0,1.39-0.887,2.227-2.65,2.518c-0.96,0-2.438-1.474-4.425-4.426L4.93,182.017v35.713
		c0,1.255-0.806,2.014-2.416,2.281H2.415c-1.297,0-2.101-0.839-2.415-2.518v-42.55C0.203,173.088,0.917,172.16,2.146,172.16z"/>
	<path id="A_6_" fill="#BB5400" d="M66.471,172.257c1.544,0,2.681,1.557,3.422,4.666c10.149,26.421,15.268,39.944,15.354,40.57
		v0.369c0,1.255-0.792,2.016-2.379,2.281h-0.133c-1.475,0-2.529-1.432-3.152-4.293l-5.668-14.719H59.16l-6.907,18.244
		c-0.67,0.508-1.262,0.768-1.775,0.768h-0.271c-1.587-0.291-2.379-1.082-2.379-2.383v-0.135l4.293-11.603
		c7.487-19.514,11.556-30.345,12.207-32.488C65.084,172.686,65.801,172.257,66.471,172.257z M66.471,181.851l-5.296,14.35h10.831
		v-0.133l-5.402-14.217H66.471z"/>
	<path id="P_4_" fill="#BB5400" d="M96.263,171.924h11.603c4.516,0,8.369,2.336,11.568,7.009c1.184,2.391,1.776,4.552,1.776,6.473
		v0.904c0,4.224-1.909,7.869-5.735,10.935c-2.591,1.786-5.128,2.68-7.609,2.68h-8.785v17.938c0,1.231-0.808,1.99-2.414,2.281H96.53
		c-1.293,0-2.101-0.848-2.415-2.547v-42.854C94.318,172.86,95.032,171.924,96.263,171.924z M99.081,176.887v18.076h7.879
		c4.246,0,7.174-2.035,8.785-6.104c0.333-0.852,0.501-1.865,0.501-3.055c0-3.729-1.909-6.489-5.735-8.277
		c-0.937-0.424-2.035-0.64-3.285-0.64H99.081z"/>
	<path id="A_2_" fill="#BB5400" d="M140.735,172.257c1.544,0,2.681,1.557,3.422,4.666c10.149,26.421,15.268,39.944,15.354,40.57
		v0.369c0,1.255-0.792,2.016-2.379,2.281h-0.133c-1.474,0-2.529-1.432-3.152-4.293l-5.668-14.719h-14.755l-6.907,18.244
		c-0.669,0.508-1.262,0.768-1.775,0.768h-0.271c-1.588-0.291-2.379-1.082-2.379-2.383v-0.135l4.292-11.603
		c7.487-19.514,11.557-30.345,12.207-32.488C139.348,172.686,140.064,172.257,140.735,172.257z M140.735,181.851l-5.296,14.35
		h10.831v-0.133l-5.402-14.217H140.735z"/>
</g>
<path id="V" fill="#FF9800" d="M187.026,173.097c1.352,0,2.459,1.732,3.331,5.196l12.161,32.221h0.099l13.627-36.438
	c0.671-0.653,1.337-0.979,1.989-0.979h0.134c1.261,0,2.048,0.825,2.354,2.485l-15.621,42.122c-0.372,1.654-1.201,2.485-2.484,2.485
	h-0.099c-1.482,0-2.606-1.614-3.366-4.838c-9.826-25.926-14.739-39.141-14.739-39.641v-0.259
	C184.413,174.142,185.283,173.358,187.026,173.097z"/>
<path id="E_2_" fill="#FF9800" d="M231.777,173.063l0.619,0.13h24.316l0.489-0.13c1.417,0,2.243,0.906,2.483,2.711
	c-0.325,1.503-1.23,2.256-2.712,2.256H234.26v16.733h14.87l1.765-0.13c1.111,0,1.853,0.825,2.224,2.482
	c0,1.09-0.664,1.918-1.994,2.484l-2.483-0.129H234.26v15.88h23.301c1.154,0,1.865,0.871,2.125,2.611
	c-0.437,1.485-1.178,2.227-2.225,2.227h-25.684c-1.57-0.283-2.354-1.066-2.354-2.355v-42.288c0.241-1.569,1.024-2.353,2.354-2.353
	V173.063z"/>
<path id="N_1_" fill="#FF9800" d="M269.803,173.422h0.487c1.047,0,1.949,0.819,2.713,2.449c1.219,1.376,10.163,12.826,26.831,34.351
	c0.172,0,0.259,0.118,0.259,0.358l0.1,0.13h0.131v-35.068c0.282-1.479,1.022-2.22,2.224-2.22h0.358c1.22,0,1.961,0.777,2.225,2.319
	v41.993c0,1.353-0.865,2.172-2.583,2.455c-0.938,0-2.377-1.437-4.313-4.313l-25.719-32.845v34.803c0,1.223-0.787,1.961-2.354,2.223
	h-0.1c-1.266,0-2.049-0.816-2.353-2.452v-41.469C267.903,174.328,268.602,173.422,269.803,173.422z"/>
<path id="T_1_" fill="#FF9800" d="M316.318,173.259h30.491c1.479,0.283,2.22,1.024,2.22,2.224v0.488
	c0,1.198-0.902,1.895-2.713,2.093H334.03v39.899c0,1.224-0.783,1.965-2.353,2.227h-0.1c-1.261,0-2.049-0.831-2.354-2.485v-39.641
	h-12.516c-1.653-0.328-2.483-1.145-2.483-2.452C314.572,174.046,315.271,173.259,316.318,173.259z"/>
<path id="U" fill="#FF9800" d="M359.76,173.358h0.49c1.481,0.305,2.223,0.958,2.223,1.958v26.342c0,5.666,1.613,9.455,4.836,11.374
	c2.024,1.566,4.293,2.353,6.799,2.353c4.813,0,8.443-2.476,10.88-7.419c0.503-1.545,0.753-3.16,0.753-4.835v-27.453
	c0.263-1.548,1-2.319,2.224-2.319h0.358c1.481,0.283,2.223,1.024,2.223,2.224v28.79c0,4.901-2.353,9.185-7.061,12.844
	c-2.964,1.982-5.971,2.974-9.019,2.974h-0.85c-5.124,0-9.576-2.519-13.366-7.552c-1.724-2.699-2.583-6.036-2.583-10v-26.568
	C357.862,174.26,358.562,173.358,359.76,173.358z"/>
<path id="R_2_" fill="#FF9800" d="M401.347,173.292h10.289c4.383,0,7.968,2.311,10.757,6.929c0.889,1.786,1.338,3.65,1.338,5.587
	v0.488c0,4.313-2.103,7.856-6.308,10.621l-1.208,0.624c7.494,12.919,11.241,19.521,11.241,19.805v0.617
	c0,1.224-0.786,1.965-2.353,2.227h-0.132c-1.178,0-2.407-1.407-3.69-4.214l-10.166-17.323h-7.027v19.311
	c0,1.224-0.783,1.965-2.353,2.227h-0.13c-1.265,0-2.048-0.831-2.353-2.485v-41.665C399.452,174.205,400.145,173.292,401.347,173.292
	z M404.088,177.994v15.854h7.027c3.9,0,6.458-2.103,7.681-6.308l0.13-1.012v-0.979c0-3.097-1.729-5.449-5.196-7.061
	c-0.979-0.325-2.506-0.494-4.575-0.494H404.088z"/>
<path id="E_1_" fill="#FF9800" d="M438.149,173.193h24.317l0.491-0.13c1.416,0,2.241,0.906,2.482,2.711
	c-0.325,1.503-1.229,2.256-2.711,2.256h-22.715v16.733h14.871l1.765-0.13c1.111,0,1.853,0.825,2.224,2.482
	c0,1.09-0.666,1.918-1.994,2.484l-2.485-0.129h-14.38v15.88h23.302c1.153,0,1.864,0.871,2.124,2.611
	c-0.438,1.485-1.178,2.227-2.224,2.227h-25.685c-1.569-0.283-2.353-1.066-2.353-2.355v-42.288c0.241-1.569,1.024-2.353,2.353-2.353
	H438.149z"/>
<g id="PARTNERS_2_">
	<path id="P_1_" fill="#CC6500" d="M102.749,248.792v8.9h-2.761V234.14h6.472c2.516,0,4.468,0.614,5.854,1.839
		c1.386,1.229,2.078,2.958,2.078,5.193c0,2.233-0.768,4.062-2.308,5.484c-1.536,1.422-3.613,2.136-6.231,2.136H102.749z
		 M102.749,236.638v9.657h2.892c1.901,0,3.357-0.436,4.359-1.306c1.002-0.871,1.503-2.1,1.503-3.686
		c0-3.112-1.839-4.666-5.518-4.666H102.749z"/>
	<path id="A_1_" fill="#CC6500" d="M150.944,257.692h-3.057l-2.494-6.604h-9.986l-2.348,6.604h-3.071l9.032-23.553h2.859
		L150.944,257.692z M144.49,248.609l-3.697-10.034c-0.121-0.33-0.241-0.853-0.362-1.576h-0.066
		c-0.109,0.669-0.234,1.192-0.376,1.576l-3.664,10.034H144.49z"/>
	<path id="R_5_" fill="#CC6500" d="M187.771,257.692h-3.284l-3.941-6.604c-0.362-0.61-0.709-1.134-1.05-1.564
		c-0.34-0.436-0.688-0.786-1.042-1.062c-0.359-0.273-0.739-0.475-1.152-0.599c-0.41-0.124-0.874-0.19-1.386-0.19h-2.268v10.02
		h-2.761V234.14h7.032c1.027,0,1.979,0.131,2.849,0.388c0.871,0.256,1.627,0.646,2.267,1.174c0.64,0.526,1.141,1.181,1.503,1.963
		c0.358,0.783,0.541,1.701,0.541,2.75c0,0.823-0.125,1.576-0.37,2.26c-0.249,0.685-0.596,1.295-1.053,1.828
		c-0.454,0.538-1.002,0.995-1.642,1.372c-0.64,0.38-1.36,0.673-2.158,0.882v0.065c0.392,0.175,0.735,0.372,1.024,0.6
		c0.292,0.223,0.566,0.49,0.83,0.797c0.263,0.304,0.523,0.651,0.779,1.042c0.26,0.388,0.545,0.842,0.863,1.353L187.771,257.692z
		 M173.648,236.638v8.542h3.745c0.691,0,1.328-0.106,1.912-0.315c0.585-0.208,1.093-0.504,1.521-0.896
		c0.424-0.388,0.76-0.862,1.002-1.427c0.238-0.562,0.358-1.195,0.358-1.897c0-1.258-0.406-2.241-1.222-2.947s-1.996-1.06-3.54-1.06
		H173.648z"/>
	<path id="T_3_" fill="#CC6500" d="M220.546,236.638h-6.798v21.055h-2.761v-21.055h-6.783v-2.498h16.342V236.638z"/>
	<path id="N_2_" fill="#CC6500" d="M259.705,257.692h-3.383l-12.118-18.773c-0.307-0.469-0.559-0.962-0.757-1.478h-0.099
		c0.088,0.505,0.132,1.583,0.132,3.236v17.015h-2.762V234.14h3.581l11.793,18.478c0.493,0.768,0.812,1.294,0.954,1.576h0.065
		c-0.109-0.677-0.164-1.833-0.164-3.463V234.14h2.757V257.692z"/>
	<path id="E_4_" fill="#CC6500" d="M294.846,257.692h-12.483V234.14h11.957v2.498h-9.196v7.832h8.506v2.483h-8.506v8.241h9.723
		V257.692z"/>
	<path id="R_1_" fill="#CC6500" d="M332.74,257.692h-3.284l-3.941-6.604c-0.362-0.61-0.71-1.134-1.05-1.564
		c-0.34-0.436-0.687-0.786-1.042-1.062c-0.358-0.273-0.738-0.475-1.152-0.599c-0.409-0.124-0.873-0.19-1.386-0.19h-2.267v10.02
		h-2.761V234.14h7.031c1.028,0,1.979,0.131,2.85,0.388c0.869,0.256,1.626,0.646,2.267,1.174c0.64,0.526,1.141,1.181,1.503,1.963
		c0.358,0.783,0.541,1.701,0.541,2.75c0,0.823-0.124,1.576-0.369,2.26c-0.249,0.685-0.596,1.295-1.054,1.828
		c-0.453,0.538-1.001,0.995-1.641,1.372c-0.641,0.38-1.361,0.673-2.158,0.882v0.065c0.392,0.175,0.735,0.372,1.024,0.6
		c0.292,0.223,0.566,0.49,0.83,0.797c0.263,0.304,0.522,0.651,0.778,1.042c0.26,0.388,0.545,0.842,0.862,1.353L332.74,257.692z
		 M318.618,236.638v8.542h3.744c0.691,0,1.327-0.106,1.913-0.315c0.585-0.208,1.093-0.504,1.521-0.896
		c0.425-0.388,0.761-0.862,1.002-1.427c0.237-0.562,0.359-1.195,0.359-1.897c0-1.258-0.407-2.241-1.222-2.947
		c-0.815-0.706-1.997-1.06-3.54-1.06H318.618z"/>
	<path id="S_2_" fill="#CC6500" d="M351.356,256.742v-3.255c0.373,0.329,0.818,0.625,1.339,0.888
		c0.522,0.264,1.067,0.483,1.645,0.666c0.574,0.179,1.152,0.318,1.729,0.417c0.582,0.099,1.12,0.15,1.613,0.15
		c1.697,0,2.961-0.315,3.799-0.948c0.838-0.629,1.259-1.535,1.259-2.716c0-0.637-0.14-1.188-0.421-1.661
		c-0.278-0.468-0.662-0.899-1.156-1.287c-0.493-0.387-1.075-0.76-1.751-1.118c-0.673-0.354-1.396-0.728-2.176-1.122
		c-0.819-0.418-1.587-0.838-2.297-1.266c-0.713-0.429-1.331-0.899-1.856-1.412c-0.527-0.516-0.94-1.097-1.24-1.751
		c-0.3-0.651-0.453-1.416-0.453-2.289c0-1.075,0.237-2.008,0.709-2.801c0.469-0.794,1.086-1.449,1.854-1.964
		c0.768-0.513,1.638-0.896,2.617-1.148c0.98-0.252,1.982-0.377,2.999-0.377c2.321,0,4.011,0.278,5.075,0.838v3.104
		c-1.39-0.966-3.174-1.448-5.354-1.448c-0.603,0-1.206,0.066-1.806,0.19c-0.604,0.124-1.141,0.332-1.609,0.614
		c-0.472,0.285-0.855,0.654-1.152,1.101c-0.295,0.45-0.442,0.998-0.442,1.642c0,0.604,0.114,1.122,0.337,1.562
		c0.223,0.438,0.557,0.838,0.994,1.199c0.436,0.361,0.97,0.714,1.603,1.05c0.629,0.34,1.353,0.713,2.175,1.119
		c0.842,0.416,1.643,0.852,2.396,1.312c0.757,0.461,1.419,0.969,1.989,1.528s1.021,1.178,1.354,1.854
		c0.336,0.681,0.501,1.459,0.501,2.334c0,1.162-0.228,2.143-0.681,2.946c-0.453,0.805-1.067,1.459-1.839,1.964
		s-1.661,0.866-2.67,1.094c-1.006,0.223-2.069,0.337-3.185,0.337c-0.373,0-0.834-0.03-1.379-0.092
		c-0.548-0.059-1.108-0.146-1.678-0.264c-0.567-0.113-1.108-0.256-1.616-0.428C352.073,257.137,351.664,256.946,351.356,256.742z"/>
</g>
</svg>
